<svg width="24" height="24" viewBox="0 0 24 24" fill="none" xmlns="http://www.w3.org/2000/svg">
<path fill-rule="evenodd" clip-rule="evenodd" d="M13.2485 3.25H10.2485C10.0496 3.25 9.85882 3.32902 9.71817 3.46967C9.57752 3.61032 9.4985 3.80109 9.4985 4V4.75H13.9985V4C13.9985 3.80109 13.9195 3.61032 13.7788 3.46967C13.6382 3.32902 13.4474 3.25 13.2485 3.25ZM16.2485 4.75V4C16.2485 3.20435 15.9324 2.44129 15.3698 1.87868C14.8072 1.31607 14.0441 1 13.2485 1H10.2485C9.45285 1 8.68979 1.31607 8.12718 1.87868C7.56457 2.44129 7.2485 3.20435 7.2485 4V4.75H3.125C2.82663 4.75 2.54048 4.86853 2.3295 5.0795C2.11853 5.29048 2 5.57663 2 5.875C2 6.17337 2.11853 6.45952 2.3295 6.6705C2.54048 6.88147 2.82663 7 3.125 7H3.593L4.0685 18.4375C4.11688 19.5977 4.61185 20.6942 5.44994 21.4979C6.28802 22.3016 7.40433 22.7502 8.5655 22.75H14.933C16.0939 22.7498 17.2098 22.301 18.0476 21.4974C18.8854 20.6937 19.3801 19.5974 19.4285 18.4375L19.9055 7H20.3735C20.6719 7 20.958 6.88147 21.169 6.6705C21.38 6.45952 21.4985 6.17337 21.4985 5.875C21.4985 5.57663 21.38 5.29048 21.169 5.0795C20.958 4.86853 20.6719 4.75 20.3735 4.75H16.2485ZM17.6525 7H5.8445L6.317 18.343C6.341 18.9232 6.58841 19.4717 7.00747 19.8737C7.42653 20.2757 7.98479 20.5001 8.5655 20.5H14.933C15.5134 20.4997 16.0713 20.2751 16.4901 19.8732C16.9088 19.4712 17.156 18.923 17.18 18.343L17.6525 7ZM8.3735 10V17.5C8.3735 17.7984 8.49203 18.0845 8.703 18.2955C8.91398 18.5065 9.20013 18.625 9.4985 18.625C9.79687 18.625 10.083 18.5065 10.294 18.2955C10.505 18.0845 10.6235 17.7984 10.6235 17.5V10C10.6235 9.70163 10.505 9.41548 10.294 9.2045C10.083 8.99353 9.79687 8.875 9.4985 8.875C9.20013 8.875 8.91398 8.99353 8.703 9.2045C8.49203 9.41548 8.3735 9.70163 8.3735 10ZM13.9985 8.875C14.2969 8.875 14.583 8.99353 14.794 9.2045C15.005 9.41548 15.1235 9.70163 15.1235 10V17.5C15.1235 17.7984 15.005 18.0845 14.794 18.2955C14.583 18.5065 14.2969 18.625 13.9985 18.625C13.7001 18.625 13.414 18.5065 13.203 18.2955C12.992 18.0845 12.8735 17.7984 12.8735 17.5V10C12.8735 9.70163 12.992 9.41548 13.203 9.2045C13.414 8.99353 13.7001 8.875 13.9985 8.875Z" fill="#757575"/>
</svg>
